<?xml version="1.0" standalone="no"?>
<!DOCTYPE svg PUBLIC "-//W3C//DTD SVG 20010904//EN"
 "http://www.w3.org/TR/2001/REC-SVG-20010904/DTD/svg10.dtd">
<svg version="1.0" xmlns="http://www.w3.org/2000/svg"
 width="640.000000pt" height="640.000000pt" viewBox="0 0 640.000000 640.000000"
 preserveAspectRatio="xMidYMid meet">
<metadata>
Created by potrace 1.15, written by Peter Selinger 2001-2017
</metadata>
<g transform="translate(0.000000,640.000000) scale(0.100000,-0.100000)"
fill="#000000" stroke="none">
<path d="M3008 5109 c-359 -35 -726 -186 -1013 -418 -813 -656 -949 -1844
-307 -2670 629 -808 1790 -978 2622 -383 335 239 581 572 710 962 263 789 -17
1655 -699 2155 -369 271 -845 399 -1313 354z m334 -189 c406 -39 760 -198
1041 -469 174 -168 276 -306 372 -506 317 -658 182 -1448 -336 -1964 -485
-483 -1193 -636 -1831 -395 -78 29 -77 29 -53 141 79 373 353 650 739 748 54
14 173 31 291 41 192 18 197 19 154 31 -24 8 -75 18 -114 23 -38 6 -149 30
-245 55 -97 24 -219 49 -271 56 -303 35 -569 -122 -760 -448 l-36 -63 -63 95
c-35 53 -67 92 -71 88 -18 -18 -32 -258 -23 -386 5 -70 7 -127 3 -127 -17 0
-230 206 -265 256 -13 19 -12 32 6 117 23 106 54 201 94 291 32 72 123 211
164 249 l30 29 15 -54 c9 -29 24 -83 33 -120 10 -38 22 -68 26 -68 4 0 38 20
75 44 202 130 420 196 648 196 138 0 231 -18 501 -96 163 -47 252 -67 310 -71
76 -5 85 -4 134 23 66 36 196 162 215 208 8 20 15 55 15 79 0 78 -20 91 -339
222 -156 64 -294 121 -306 128 -13 7 -46 56 -77 117 -107 207 -212 341 -302
387 -28 14 -86 41 -130 60 -170 72 -327 182 -418 292 -86 102 -147 271 -148
404 l0 59 -29 -19 c-67 -42 -166 -132 -221 -200 -134 -166 -200 -345 -200
-543 0 -121 23 -225 95 -425 10 -27 -71 62 -142 157 l-57 77 -51 -37 c-200
-143 -273 -228 -320 -372 -10 -30 -20 -49 -22 -43 -8 23 17 264 37 362 60 295
211 592 411 809 369 400 902 611 1421 562z m-524 -1419 c123 -40 229 -89 250
-114 15 -18 -9 -23 -154 -33 l-102 -7 -61 91 c-59 88 -67 102 -56 102 2 0 58
-17 123 -39z"/>
<path d="M2755 4516 c-136 -43 -216 -147 -185 -243 16 -47 41 -85 94 -142 41
-43 122 -108 162 -129 20 -11 21 -10 13 31 -4 23 -11 144 -15 270 -5 154 -11
227 -18 226 -6 0 -29 -6 -51 -13z"/>
</g>
</svg>
